<svg id="Layer_1" data-name="Layer 1" xmlns="http://www.w3.org/2000/svg" viewBox="0 0 485.89 523.04"><defs><style>.cls-1{fill:#ffc39e;}.cls-2{fill:#e39361;}.cls-3{fill:#eca477;}.cls-4{fill:#eba22b;}.cls-5{fill:#c9a042;}.cls-6{fill:#189177;}.cls-7{fill:#d6b66c;}.cls-8{fill:#e9c26f;}.cls-9{fill:#e4b756;}.cls-10{fill:#fbc968;}.cls-11{fill:#1dbb9a;}.cls-12{fill:#eab446;}.cls-13{fill:#1ba789;}.cls-14{fill:#e3b248;}.cls-15{fill:#d1a134;}.cls-16{fill:#f2c260;}.cls-17{fill:#c38e15;}.cls-18{fill:#d89e38;}.cls-19{fill:#ac7207;}.cls-20{fill:#d38d1e;}.cls-21{fill:#c57717;}.cls-22{fill:#dc9a26;}.cls-23{fill:#b68920;}.cls-24{fill:#d1a747;}.cls-25{fill:#c5972b;}.cls-26{fill:#de9e26;}.cls-27{fill:#b67e0d;}.cls-28{fill:#e0a63e;}.cls-29{fill:#c58617;}</style></defs><path class="cls-1" d="M896.78,684.43c-2.06-1.55-4.24-3-6.16-4.67a278.14,278.14,0,0,1-28.21-28.51,246.93,246.93,0,0,1-22-30.72,241.55,241.55,0,0,1-15.76-30.81,230.8,230.8,0,0,1-13.7-43.4c-1.6-7.68-2.63-15.47-3.73-23.24a188.74,188.74,0,0,1-1.79-32.56c.25-7.74,1.1-15.45,1.74-23.17,1-12.6,3.79-24.88,7.06-37.05a238.07,238.07,0,0,1,12.35-34.36A221.14,221.14,0,0,1,849,356.31c5.27-7.35,10.86-14.51,16.82-21.31a256.3,256.3,0,0,1,18.94-19.5,236,236,0,0,1,40.8-30.11A240.58,240.58,0,0,1,976.37,263a260.63,260.63,0,0,1,35.21-8.06c17.36-2.84,34.81-3,52.26-2.27a202.57,202.57,0,0,1,35.44,4.9A244.84,244.84,0,0,1,1134,267.74c.5.2,1,.48,1.44.72l-2.78,2.08-13.7,5.74,13.86,12.33,3.09-.54c3.27-.52,6.54-1,9.8-1.58,1.17-.2,2.3-.69,3.31.36a2.45,2.45,0,0,0-.48.42q-8.49,12.68-17,25.37a12.81,12.81,0,0,0-1,2.66,16.87,16.87,0,0,0-2.2,2.19q-3.67,5.33-7.19,10.76c-.82,1.25-1.46,2.62-2.18,3.94a12.38,12.38,0,0,0-1.55,1.61q-5.87,8.71-11.66,17.49a15.36,15.36,0,0,0-1,2.34,24.83,24.83,0,0,0-2.08,2.4q-5.43,8-10.77,16.08a29.47,29.47,0,0,0-1.49,2.84,14.61,14.61,0,0,0-1.51,1.65q-5,7.2-9.81,14.43a31.69,31.69,0,0,0-1.53,2.81c-1.69,2.6-3.57,5.1-5,7.82-2,3.79-3.73,7.78-5.64,11.64-5.33,10.73-10.72,21.43-16.05,32.15a34.2,34.2,0,0,0-1.21,3.3,23.84,23.84,0,0,0-1.77,2.64q-8.43,16.86-16.79,33.75a21,21,0,0,0-.77,2.1l-21.42,10.45Q995,504.44,981.11,511.2a7.83,7.83,0,0,0-1.45,1.21c-4.32,2.34-8.67,4.62-12.95,7-3.33,1.89-6.57,4-9.85,5.95-4.7,2.62-9.35,5.32-14.11,7.81a9,9,0,0,0-4.18,4.68c-4.28,9.64-8.59,19.27-12.83,28.94-1.33,3-2.47,6.15-3.69,9.24l-.74,1.89c-2.4,3.73-4.29,7.63-4.57,12.17-.15,2.46-.47,4.92-.77,7.37q-1.83,15-3.69,30c-.83,6.7-1.71,13.4-2.47,20.12-.36,3.18-.48,6.39-.7,9.59-.53.79-1.13,1.54-1.58,2.38-3,5.56-5.86,11.19-9,16.69C897.1,678.88,896.05,681.42,896.78,684.43Z" transform="translate(-805.29 -231.41)"/><path class="cls-2" d="M1199,304.25c7.18,6.36,14.69,12.38,21.45,19.16a240.27,240.27,0,0,1,39.87,52.72,243.64,243.64,0,0,1,18.59,41.93,256.69,256.69,0,0,1,9.61,40.17c2.83,17.57,3.16,35.24,2.23,52.89a228.08,228.08,0,0,1-10.54,56.69,245.88,245.88,0,0,1-17.47,41.7,229.37,229.37,0,0,1-27,40.2c-5.07,6-10.24,12-15.83,17.5a244.57,244.57,0,0,1-53.91,40.48,240,240,0,0,1-50.06,20.77c-.44-2.6-.89-5.21-1.33-7.81-.25-3.64-.43-7.28-.75-10.91s-.79-7.44-1.19-11.16c0-1.29,0-2.59-.13-3.88-.35-3.51-.75-7-1.17-10.54-.39-3.18-.85-6.36-1.28-9.54.19-.48.66-1,.54-1.41-1.19-3.7,0-7.22.6-10.81,1.19-7,2.25-14,3.4-21,1.4-8.47,2.85-16.92,4.27-25.39s2.76-16.73,4.15-25.09c1.17-7.1,2.39-14.18,3.5-21.29.65-4.12,1.14-8.28,1.7-12.42l0,0,.62-1.3c0-1.3,0-2.61,0-3.92-.24-2.34-.34-4.7-.76-7q-2.46-13.72-5.11-27.41a11,11,0,0,0-1.22-2.54,25.26,25.26,0,0,0,1.22-4.31c.55-5.44.92-10.9,1.38-16.35.21-2.56.43-5.13.71-7.68.56-5,1.18-10,1.73-15,0-.23-.35-.5-.53-.76.66-1.68,1.42-3.33,2-5.05,3.22-9.93,6.37-19.88,9.59-29.82,4-12.46,8.17-24.89,12.18-37.36.71-2.23,1-4.58,1.57-6.87a30.29,30.29,0,0,0,1.53-3.14c1.53-4.46,3-8.92,4.45-13.42.7-2.23,1.19-4.53,1.77-6.8,2-5.65,3.94-11.29,5.83-17a24.42,24.42,0,0,0,.66-3.76,13.25,13.25,0,0,0,1.26-2.18q2.15-6.24,4.13-12.53a17.58,17.58,0,0,0,.45-2.83c1.3-2.7,2.54-5.41,2.57-8.5,1.16-1,1.85-.29,2.57.64,1.73,2.24,3.52,4.45,5.28,6.67l0,13.54a11.91,11.91,0,0,0,2.3,1.44q5.7,2,11.45,3.83a22.56,22.56,0,0,0,3.1.54,4.89,4.89,0,0,0,1.45-.58c2-1.73,4-3.48,6-5.3,2.13-2,2.11-2.35.36-5.17-1.56-4-3.11-8-4.68-11.94-.06-.16-.35-.23-.53-.34.3-4.85-1-9.47-2-14.15Q1199.22,307.61,1199,304.25Z" transform="translate(-805.29 -231.41)"/><path class="cls-3" d="M1073.58,736.92c-4.18.25-8.36.48-12.53.74-1.29.07-2.56.3-3.85.32-4.2,0-8.4,0-12.6,0a239.33,239.33,0,0,1-38.15-3.55,276.62,276.62,0,0,1-35.32-8.8l-5.82-1.8c-.39-2.41-.92-4.8-1.15-7.21-.2-2.15.05-4.33-.09-6.48-.35-5.14-.92-10.26-1.22-15.4-.33-5.9-.46-11.82-.68-17.74,0-.21,0-.43,0-.65q-.61-9.63-1.24-19.28l.68,0a6,6,0,0,0,1.48-1q2.63-3.48,5.13-7,11.43-16.28,22.83-32.58c.6-.86,1.08-1.81,1.62-2.72a17,17,0,0,1,1.9.27c4.85,1.31,9.75,2.46,14.51,4s9.72,2.2,14.71.68l13.63-2.44c5-.75,9.95-1.47,14.92-2.26,4.54-.71,9.08-1.49,13.63-2.25a10.44,10.44,0,0,1,.57,1.83c.72,6,1.34,11.93,2.09,17.89s1.7,12.08,2.46,18.13,1.34,12.15,2.11,18.21a40.53,40.53,0,0,0,1.2,4.89c0,1.62,0,3.23,0,4.84q0,27.91,0,55.83A18.5,18.5,0,0,1,1073.58,736.92Z" transform="translate(-805.29 -231.41)"/><path class="cls-4" d="M1199,304.25q.27,3.36.52,6.72l-14.82-14.49c-2.52,7.26-4.88,14.07-7.25,20.88-4.08,0-8.18-.16-12.26,0a5.38,5.38,0,0,1-5.33-2.76,49.71,49.71,0,0,0-3.8-4.8l-.5.36,4.44,10.93c-.76,1.77-1.53,3.55-2.29,5.33-1.26,2.93-1.44,3-4.54,1.92-2.93-1-5.84-2.16-8.75-3.24-1-.63-2-1.22-2.9-1.9q-5.48-3.93-10.92-7.9a12.81,12.81,0,0,1,1-2.66q8.43-12.72,17-25.37a2.45,2.45,0,0,1,.48-.42c.19-1.08.39-2.16.59-3.25.64-2.14,1.29-4.29,1.93-6.44.47-1.21.94-2.42,1.4-3.64l1.59-4.1a16.57,16.57,0,0,1,2.23.07c6.26,1,12.52,2.07,18.79,3.11-2,1.62-4,3.27-6,4.85-2.69,2.09-5.43,4.12-8.56,6.49,8.22,4.22,16,8.18,23.9,12.24,1.12-1.57,2-2.89,3-4.17,2.55-3.44,5.13-6.86,7.7-10.3.3,2.55.61,5.09.91,7.64l-2.08,2.22,2.89,2.35Zm-38.47-7,5.92-3.42-7.06-3.71c-1.71,1.29-3.77,1.72-5.12,3.57Z" transform="translate(-805.29 -231.41)"/><path class="cls-1" d="M920.59,701.27,914,697.06c.83-2.88,1.58-5.79,2.53-8.63a12.22,12.22,0,0,0,.59-6.62c-.54-2.61-.62-5.32-1-8-.71-5.52-1.46-11.05-2.2-16.57a16,16,0,0,0,.73-1.79c1.77-6.43,3.57-12.85,5.25-19.3,1.89-7.27,3.66-14.56,5.53-21.84.06-.25.67-.36,1-.54,2.06,6.42,4,12.87,6.24,19.26.69,2,1,3.86.07,5.81-1,2.25-2.37,4.42-2.81,6.77-1.29,6.8-2.19,13.68-3.24,20.53q-1.07,7.14-2.14,14.28c-.6,3.24-1.21,6.47-1.81,9.71Q921.68,695.72,920.59,701.27Z" transform="translate(-805.29 -231.41)"/><path class="cls-5" d="M949.65,738.32c-.55-3.56-1.15-7.11-1.63-10.68-.54-4-1-8.06-1.45-12.08,0-2,0-4.11-.16-6.14-.26-2.88-.77-5.73-1.07-8.6-.5-4.7-.88-9.4-1.41-14.09-.08-.61-.79-1.16-1.2-1.74l-1.35-13.67c-.2-1.71-.41-3.43-.62-5.15,0-1.95,0-3.9,0-5.85l11.65-9.11.13.11c.19,2.78.42,5.56.57,8.34.25,4.62.44,9.23.66,13.85s.44,9,.65,13.52c.22,4.83.42,9.66.65,14.49.2,4.19.49,8.37.63,12.55.26,8,.44,15.92.65,23.88Z" transform="translate(-805.29 -231.41)"/><path class="cls-6" d="M913.91,657.26c.74,5.52,1.49,11,2.2,16.57.35,2.66.43,5.37,1,8a12.22,12.22,0,0,1-.59,6.62c-1,2.84-1.7,5.75-2.53,8.63a36.19,36.19,0,0,0-1.57,3.49c-2.42,7.23-4.77,14.48-7.16,21.73a3.2,3.2,0,0,1-1.16,1.7c-.71-4-1.4-8-2.12-12.07q-2.24-12.67-4.51-25.35a18.65,18.65,0,0,0-.66-2.13c-.73-3,.32-5.55,1.79-8.15,3.1-5.5,6-11.13,9-16.69.45-.84,1.05-1.59,1.58-2.38l2.5-.12Z" transform="translate(-805.29 -231.41)"/><path class="cls-7" d="M956.31,738c-.21-8-.39-15.92-.65-23.88-.14-4.18-.43-8.36-.63-12.55-.23-4.83-.43-9.66-.65-14.49q-.32-6.76-.65-13.52c-.22-4.62-.41-9.23-.66-13.85-.15-2.78-.38-5.56-.57-8.34l8.39,5.76q.63,9.64,1.24,19.28c0,.22,0,.44,0,.65.22,5.92.35,11.84.68,17.74.3,5.14.87,10.26,1.22,15.4.14,2.15-.11,4.33.09,6.48.23,2.41.76,4.8,1.15,7.21q.33,6.9.67,13.81Z" transform="translate(-805.29 -231.41)"/><path class="cls-8" d="M1088.79,734.49l-.87,2.28-7.74.73c.23-2.88.45-5.77.7-8.65.21-2.45.42-4.91.69-7.35.6-5.53,1.31-11,1.83-16.59.54-5.76.89-11.53,1.35-17.3.2-2.45.45-4.9.66-7.36l1.26-14.72h0a42.78,42.78,0,0,1,4.52,1.34c2.35,1,4.61,2.16,6.91,3.26l-.57,5.84q-1.2,8.07-2.39,16.15l-1.25,7.79a10.1,10.1,0,0,0-1.21,2.53c-.57,3.36-1,6.75-1.46,10.12-.78,5.38-1.65,10.74-2.32,16.13C1088.65,730.59,1087.77,732.54,1088.79,734.49Z" transform="translate(-805.29 -231.41)"/><path class="cls-9" d="M1086.67,665.53l-1.26,14.72c-.21,2.46-.46,4.91-.66,7.36-.46,5.77-.81,11.54-1.35,17.3-.52,5.54-1.23,11.06-1.83,16.59-.27,2.44-.48,4.9-.69,7.35-.25,2.88-.47,5.77-.7,8.65l-6.34.83c-.09-.47-.17-.94-.26-1.41a18.5,18.5,0,0,0,.73-3.61q.06-27.91,0-55.83c0-1.61,0-3.22,0-4.84Z" transform="translate(-805.29 -231.41)"/><path class="cls-10" d="M1195.56,281.71c-2.57,3.44-5.15,6.86-7.7,10.3-.95,1.28-1.85,2.6-3,4.17-7.94-4.06-15.68-8-23.9-12.24,3.13-2.37,5.87-4.4,8.56-6.49,2-1.58,4-3.23,6-4.85a12.83,12.83,0,0,1,2.79.49c2.37,1,4.65,2.15,7,3.1,3.25,1.3,6.56,2.46,9.85,3.68Z" transform="translate(-805.29 -231.41)"/><path class="cls-11" d="M1115.83,736.36c.73,1,1.55,2,2.18,3.14,2.42,4.19,4.79,8.41,7.15,12.64a21.79,21.79,0,0,1,.94,2.18h-21.8c-1.65-5.81-3.89-11.47-4.89-17.5l8.63-.6Z" transform="translate(-805.29 -231.41)"/><path class="cls-12" d="M1195.18,279.87c-3.29-1.22-6.6-2.38-9.85-3.68-2.37-.95-4.65-2.14-7-3.1a12.83,12.83,0,0,0-2.79-.49c-6.27-1-12.53-2.09-18.79-3.11a16.57,16.57,0,0,0-2.23-.07q-3.07-7.05-6.14-14.09c-.38-.88-.68-1.79-1-2.69l1.59-.81,1.29,1.31c1.22,3.1,2.22,6.3,3.71,9.26,3.3,6.51,1.36,6.41,9.1,4.08l5.07-1.26c.15-5,.3-9.87.45-14.7l1.76,0c.22,1.51.43,3,.65,4.52a23.84,23.84,0,0,1-.27,4.8,4.93,4.93,0,0,0,.89,4.27l5.31-1.33,7,3.91,2.92,2,6.21,3.82,1.57.83Z" transform="translate(-805.29 -231.41)"/><path class="cls-13" d="M1073.84,738.33l6.34-.83,7.74-.73L1098,754.33c-4.44.19-8.34.08-12.25.1s-7.75,0-11.59,0C1073.47,752.13,1073.3,742.7,1073.84,738.33Z" transform="translate(-805.29 -231.41)"/><path class="cls-13" d="M956.31,738l9.67-.3,12.37,16.59H956.23c-2.19-5-4.41-10-6.6-15-.12-.27,0-.63,0-.95Z" transform="translate(-805.29 -231.41)"/><path class="cls-11" d="M933.32,738.42l6.38,15.79H917.62a13.56,13.56,0,0,1-.27-2c0-3.66-.05-7.31,0-11a21,21,0,0,1,.43-2.83l7.41-.25Z" transform="translate(-805.29 -231.41)"/><path class="cls-14" d="M925.19,738.16l-7.41.25a4,4,0,0,1-.37-1.2c.07-7.45-.7-15,1.17-22.32.29-1.1.48-2.23.72-3.35l9.79.65c-.21,1.13-.45,2.25-.63,3.37-.44,2.78-.86,5.56-1.29,8.34Z" transform="translate(-805.29 -231.41)"/><path class="cls-9" d="M1108,736.22l-8.63.6-1.08-3.84c.19-.36.58-.75.53-1.09-.54-3.79-1.19-7.57-1.71-11.38-.34-2.53-.51-5.1-.75-7.65h10.37l.66,7.15Q1107.75,728.12,1108,736.22Z" transform="translate(-805.29 -231.41)"/><path class="cls-2" d="M1096.4,712.86c.24,2.55.41,5.12.75,7.65.52,3.81,1.17,7.59,1.71,11.38.05.34-.34.73-.53,1.09l-9.54,1.51c-1-2-.14-3.9.1-5.81.67-5.39,1.54-10.75,2.32-16.13.49-3.37.89-6.76,1.46-10.12a10.41,10.41,0,0,1,1.2-2.53,42.32,42.32,0,0,1,1.2,4.19C1095.59,707,1096,709.94,1096.4,712.86Z" transform="translate(-805.29 -231.41)"/><path class="cls-15" d="M929.09,712.19l-9.79-.65,1.29-10.28q1.1-5.55,2.17-11.11c3-.09,5.94,1.2,8.91,0l-1.92,14.28Z" transform="translate(-805.29 -231.41)"/><path class="cls-3" d="M942.73,685c.41.58,1.12,1.13,1.2,1.74.53,4.69.91,9.39,1.41,14.09.3,2.87.81,5.72,1.07,8.6.19,2,.12,4.09.16,6.14-2.32-1-4.63-2-7-3-.85-.36-1.76-.6-2.65-.89.19-2.42.38-4.83.56-7.25,0-.64,0-1.29.14-1.93.6-4.56,1.22-9.12,1.83-13.68C940.56,687.54,941.64,686.26,942.73,685Z" transform="translate(-805.29 -231.41)"/><path class="cls-9" d="M937.51,704.42c-.18,2.42-.37,4.83-.56,7.25q-.8,6.42-1.61,12.85l-8.17-.62c.43-2.78.85-5.56,1.29-8.34.18-1.12.42-2.24.63-3.37l.66-7.76A14.5,14.5,0,0,1,937.51,704.42Z" transform="translate(-805.29 -231.41)"/><path class="cls-8" d="M1108,736.22q-.3-8.12-.61-16.22l7.11.65c.44,2.6.89,5.21,1.33,7.81.15,2.07.34,4.14.42,6.21a6,6,0,0,1-.46,1.69Z" transform="translate(-805.29 -231.41)"/><path class="cls-16" d="M927.17,723.9l8.17.62c-.53,4.65-.51,9.39-2,13.9l-8.13-.26Z" transform="translate(-805.29 -231.41)"/><path class="cls-10" d="M1163,266.48c-7.74,2.33-5.8,2.43-9.1-4.08-1.49-3-2.49-6.16-3.71-9.26l2.64-.66Z" transform="translate(-805.29 -231.41)"/><path class="cls-9" d="M1152.86,252.48l-2.64.66-1.29-1.31-6.09-3.47,1.67-7.71,7.49,2.17c0,1.83.35,3.51-.08,5A4.93,4.93,0,0,0,1152.86,252.48Z" transform="translate(-805.29 -231.41)"/><path class="cls-5" d="M1171.09,232.85l5.73,5.23c-1.2,2.87-2.25,5.4-3.31,7.92l-2.58,0a31,31,0,0,0-2.77-4.28,2.66,2.66,0,0,1-.3-3.7C1169,236.29,1170,234.57,1171.09,232.85Z" transform="translate(-805.29 -231.41)"/><path class="cls-8" d="M1206,251.37l8.2-1.27a17.46,17.46,0,0,1-.31,2c-1.19,4.13-2.56,8.21-3.57,12.38-.68,2.79-2.2,4.29-5,4.65,0-.58,0-1.15,0-1.73a8.3,8.3,0,0,0,1.37-2c.77-2.55,1.38-5.15,2-7.73L1210,255l-.5-.6-2.19.58-.67.06Z" transform="translate(-805.29 -231.41)"/><path class="cls-5" d="M1186.83,268.73l-2.92-2c2.95-4.3,5.85-8.64,8.92-12.86.43-.6,1.67-.62,2.53-.91,2,.41,1.43,2,1.5,3.32-.71.41-1.65.66-2.1,1.27C1192.05,261.23,1189.46,265,1186.83,268.73Z" transform="translate(-805.29 -231.41)"/><path class="cls-10" d="M1176.89,262.82l-5.31,1.33a4.93,4.93,0,0,1-.89-4.27,23.84,23.84,0,0,0,.27-4.8h4.44C1175.9,257.65,1176.4,260.24,1176.89,262.82Z" transform="translate(-805.29 -231.41)"/><path class="cls-17" d="M1171.09,232.85c-1.07,1.72-2.13,3.44-3.23,5.14a2.66,2.66,0,0,0,.3,3.7,31,31,0,0,1,2.77,4.28c-.21,1.11-.42,2.21-.62,3.32l-1.68-.08c.55-4.13-2.05-6.72-4.8-9.34l5.89-8.46Z" transform="translate(-805.29 -231.41)"/><path class="cls-8" d="M1152.91,273.52c-.46,1.22-.93,2.43-1.4,3.64l-9-4.08.6-3.56Z" transform="translate(-805.29 -231.41)"/><path class="cls-7" d="M1196.86,256.28c-.07-1.3.54-2.91-1.5-3.32l10.59-1.59c.22,1.23.45,2.46.67,3.7l-6.48.74a.67.67,0,0,0-.45.16Z" transform="translate(-805.29 -231.41)"/><path class="cls-9" d="M1170.31,249.29c.2-1.11.41-2.21.62-3.32l2.58,0,1.89,9.07H1171c-.22-1.51-.43-3-.65-4.52Z" transform="translate(-805.29 -231.41)"/><path class="cls-18" d="M1144.51,240.65l-1.67,7.71,6.09,3.47-1.59.81-6.6-2.86c.56-3.38,1.1-6.63,1.7-10.2Z" transform="translate(-805.29 -231.41)"/><path class="cls-7" d="M1143.06,269.52l-.6,3.56a13.4,13.4,0,0,1-2.09-.78,4.61,4.61,0,0,0-5.12,0,3.71,3.71,0,0,1-1.23.31l-1.39-2,2.78-2.08C1138.18,267.28,1140.66,268.15,1143.06,269.52Z" transform="translate(-805.29 -231.41)"/><path class="cls-7" d="M1205.32,267.43c0,.58,0,1.15,0,1.73l-10.7,4.22-1.57-.83Z" transform="translate(-805.29 -231.41)"/><path class="cls-6" d="M1197.28,293.92l-2.89-2.35,2.08-2.22Z" transform="translate(-805.29 -231.41)"/><path class="cls-5" d="M1170.31,249.29v1.27l-1.76,0c0-.44,0-.87.08-1.31Z" transform="translate(-805.29 -231.41)"/><path class="cls-19" d="M913.91,657.26l-2.3-.17,1-5.35c1.38-7,2.78-14.06,4.12-21.1q2.87-15.14,5.66-30.27c.52-2.84,1.53-5.74,1.3-8.53-.37-4.66-1.56-9.26-2.4-13.88l.74-1.89a9.1,9.1,0,0,0,2.13-.53c2.44-1.3,4.8-2.75,7.24-4,3.74-2,7.53-3.89,11.3-5.83.48.94,1,1.84,1.42,2.81,1.2,3,2.33,6,3.51,9a3.46,3.46,0,0,0,3.19,2.61c4.24.4,8.43,1.24,12.66,1.81,2.21.29,4.45.4,6.68.59a2.85,2.85,0,0,0,3,1.39c2.58-.1,5.17-.05,7.75-.06l4,.7,1.29.63,1.3,0a30,30,0,0,1,.61,5c-.3,7.2,1.1,14.49-1.26,21.56l-7.1-1c-3.46,5.31-6.93,10.7-10.47,16-1.17,1.76-2.54,3.39-3.82,5.08.54-3.91,1.07-7.82,1.65-11.73.48-3.28,1.1-6.53,1.54-9.81.38-2.81,0-3.21-2.64-4.34-2.36-1-4.65-2.21-7-3.27-3.9-1.76-7.82-3.48-11.73-5.21a8,8,0,0,0-1.7.78q-6.54,5.17-13,10.42c-2.06,1.67-4.06,3.42-6.08,5.14-.36.18-1,.29-1,.54-1.87,7.28-3.64,14.57-5.53,21.84-1.68,6.45-3.48,12.87-5.25,19.3A16,16,0,0,1,913.91,657.26Z" transform="translate(-805.29 -231.41)"/><path class="cls-20" d="M1049.62,448.75a34.2,34.2,0,0,1,1.21-3.3c5.33-10.72,10.72-21.42,16.05-32.15,1.91-3.86,3.6-7.85,5.64-11.64,1.47-2.72,3.35-5.22,5-7.82.43.28,1.12.48,1.22.85a13.2,13.2,0,0,1,.7,4.08,3.78,3.78,0,0,0,2.67,4.2c3.47,1.48,6.78,3.36,10.28,4.72,5.29,2.05,4.1,1.67,3,6.61-1.19,5.22-3.26,10.23-5,15.34-1,3.09-1,3.08-4.22,2.62-.16,0-.36.2-.6.35-.79,7.18-1.3,14.46-3.5,21.45-.64,0-1.27.1-1.91.11-2.33.06-5.06-.64-6.89.34s-2.69,3.64-4,5.56c-4-2.18-8.13-4.3-12.14-6.57C1054.61,452,1052.14,450.34,1049.62,448.75Z" transform="translate(-805.29 -231.41)"/><path class="cls-21" d="M1049.62,448.75c2.52,1.59,5,3.28,7.58,4.75,4,2.27,8.09,4.39,12.14,6.57,0,.2,0,.4,0,.6-2.42,2.81-2.45,3-.86,5.77,1,1.77,2.1,3.49,3,5.3a3.13,3.13,0,0,0,3.27,1.95c3.1-.08,6.21,0,9.31.07-1.25.17-2.49.41-3.75.47-1.67.08-3.36,0-4.8,0-3,9-5.87,17.53-8.68,26.07-.83,2.53-1.49,5.12-2.23,7.68-2.53-1.38-5.12-2.65-7.56-4.15-9-5.5-17.85-11.07-26.77-16.61a21,21,0,0,1,.77-2.1q8.37-16.87,16.79-33.75A23.84,23.84,0,0,1,1049.62,448.75Z" transform="translate(-805.29 -231.41)"/><path class="cls-22" d="M1082.12,454.06c2.2-7,2.71-14.27,3.5-21.45.24-.15.44-.37.6-.35,3.18.46,3.19.47,4.22-2.62,1.7-5.11,3.77-10.12,5-15.34,1.13-4.94,2.32-4.56-3-6.61-3.5-1.36-6.81-3.24-10.28-4.72a3.78,3.78,0,0,1-2.67-4.2,13.2,13.2,0,0,0-.7-4.08c-.1-.37-.79-.57-1.22-.85a31.69,31.69,0,0,1,1.53-2.81q4.86-7.25,9.81-14.43a14.61,14.61,0,0,1,1.51-1.65,4.25,4.25,0,0,1,1.22.38c5.7,4,11.39,8,17.08,12a7.76,7.76,0,0,1-.47,1.53q-4.6,8.49-9.26,17c-.65,1.19-1.27,2.4-2,3.79l9,2.32a23.09,23.09,0,0,0-1.65,3.1,3.25,3.25,0,0,0-.08,2.35c2.48,4.49,5.09,8.9,7.64,13.31l4,.21-3.29,9.59c-5.87-1.77-11.74-3.56-17.62-5.28a31,31,0,0,0-3.75-.59v33.75l-3.27-.64a3.41,3.41,0,0,1-.1-.64l1.92-3.1c-1.57-2.76-3.06-5.23-4.4-7.78A3.48,3.48,0,0,0,1082.12,454.06Z" transform="translate(-805.29 -231.41)"/><path class="cls-15" d="M1030.29,487.24c8.92,5.54,17.82,11.11,26.77,16.61,2.44,1.5,5,2.77,7.56,4.15,0,.21,0,.41,0,.62-4.27,1.69-8.53,3.43-12.83,5.06-4.89,1.85-9.82,3.59-14.74,5.39l-8.6-14.9h-16.79c-1.66-1.84-2.88-3.88-2.78-6.48Z" transform="translate(-805.29 -231.41)"/><path class="cls-23" d="M942.72,565.66c-3.77,1.94-7.56,3.85-11.3,5.83-2.44,1.3-4.8,2.75-7.24,4a9.1,9.1,0,0,1-2.13.53c1.22-3.09,2.36-6.21,3.69-9.24,4.24-9.67,8.55-19.3,12.83-28.94a9,9,0,0,1,4.18-4.68c4.76-2.49,9.41-5.19,14.11-7.8.43.26,1.18.47,1.25.81.7,3.73,1.31,7.48,1.94,11.23-1.09-2.45-3.08-3-5.55-2.74a20.22,20.22,0,0,1-3.89,0,3,3,0,0,0-3.32,2,6.51,6.51,0,0,1-.95,1.69c-2.52,2.94-2.43,5.67-.24,9,3.19,4.77,1.83,4,7,4,6.19,0,4.37.89,7.52-4.16a12.51,12.51,0,0,1,.8-1,11.9,11.9,0,0,1,2,7.2,10.43,10.43,0,0,1-1.66,1.41c-5.62,3.07-11.27,6.07-16.88,9.14A17.26,17.26,0,0,0,942.72,565.66Z" transform="translate(-805.29 -231.41)"/><path class="cls-24" d="M1008.87,497.69c-.1,2.6,1.12,4.64,2.78,6.48-.08.17-.15.35-.22.52s-.49.1-.57.24c-2.77,4.61-5.54,9.21-8.21,13.87a2.52,2.52,0,0,0,.19,2.08c1.75,3.08,3.61,6.09,5.44,9.12,0,.22,0,.43,0,.64-4,1.68-8.06,3.32-12.06,5.06-.66.29-1.12,1-1.67,1.59-.42-.46-1-.86-1.22-1.4-1.23-3.54-3.69-4.59-7.17-3.73l-7.77-.32,6.42-.9a16,16,0,0,0-.27-2.25c-1.6-5.43-3.24-10.86-4.86-16.28a7.83,7.83,0,0,1,1.45-1.21Q995,504.42,1008.87,497.69Z" transform="translate(-805.29 -231.41)"/><path class="cls-25" d="M979.66,512.41c1.62,5.42,3.26,10.85,4.86,16.28a16,16,0,0,1,.27,2.25l-6.42.9q-3,4.89-6,9.77a2.59,2.59,0,0,0,.1,3,32.25,32.25,0,0,1,1.55,3.44c-3.61.88-6.44,3.15-9.3,5.33l-1.3,0a11.9,11.9,0,0,0-2-7.2c1.36-2.2,1.45-4.31-.29-6.42a10.33,10.33,0,0,1-1.1-2.32c-.63-3.75-1.24-7.5-1.94-11.23-.07-.34-.82-.55-1.25-.81,3.28-2,6.52-4.07,9.85-6C971,517,975.34,514.75,979.66,512.41Z" transform="translate(-805.29 -231.41)"/><path class="cls-26" d="M1104.75,353.63a15.36,15.36,0,0,1,1-2.34q5.79-8.78,11.66-17.49a12.38,12.38,0,0,1,1.55-1.61c1.52,1,3,1.92,4.56,2.91,3.48,2.29,7,4.6,10.44,6.9a6,6,0,0,1-.32,1.23c-2.51,4.64-5,9.3-7.62,13.88a12.61,12.61,0,0,1-2.41,2.37,3.14,3.14,0,0,0-2.79-1.19c-2,.07-4.06,0-6.09,0a45,45,0,0,1-4.43-1.62C1108.42,355.76,1106.6,354.65,1104.75,353.63Z" transform="translate(-805.29 -231.41)"/><path class="cls-27" d="M921.31,578c.84,4.62,2,9.22,2.4,13.88.23,2.79-.78,5.69-1.3,8.53q-2.8,15.14-5.66,30.27c-1.34,7-2.74,14.07-4.12,21.1l-1,5.35-2.5.12c.22-3.2.34-6.41.7-9.59.76-6.72,1.64-13.42,2.47-20.12q1.86-15,3.69-30c.3-2.45.62-4.91.77-7.37C917,585.59,918.91,581.69,921.31,578Z" transform="translate(-805.29 -231.41)"/><path class="cls-28" d="M1104.75,353.63c1.85,1,3.67,2.13,5.58,3a45,45,0,0,0,4.43,1.62c-.07.17-.15.34-.21.51-1.23,0-2.66-.64-3.52.79-1.68,2.84-3.3,5.72-4.93,8.55,1.36,2.36,2.77,4.41,3.77,6.65s2.4,3.12,4.69,2.94c-1.09,1.93-2.3,3.81-3.22,5.82A30,30,0,0,0,1110,388l-1.3-.64c-5.69-4-11.38-8-17.08-12a4.25,4.25,0,0,0-1.22-.38,29.47,29.47,0,0,1,1.49-2.84q5.34-8.07,10.77-16.08A24.83,24.83,0,0,1,1104.75,353.63Z" transform="translate(-805.29 -231.41)"/><path class="cls-28" d="M1134,342c-3.48-2.3-7-4.61-10.44-6.9-1.51-1-3-1.94-4.56-2.91.72-1.32,1.36-2.69,2.18-3.94q3.52-5.43,7.19-10.76a16.87,16.87,0,0,1,2.2-2.19q5.46,4,10.92,7.9c.94.68,1.93,1.27,2.9,1.9-.56.49-1.32.88-1.65,1.49-2.74,5.11-5.41,10.26-8.1,15.39Z" transform="translate(-805.29 -231.41)"/><path class="cls-5" d="M1132.63,270.54l1.39,2q-.12.27-.21.54a71.32,71.32,0,0,0-9.74,4.22,6.06,6.06,0,0,0,.77,1.35c2.41,2.14,4.89,4.19,7.25,6.37a3.73,3.73,0,0,0,3.82.94l0,.28c0,.6,0,1.2-.07,1.8l-3.09.54-13.86-12.33Z" transform="translate(-805.29 -231.41)"/><path class="cls-7" d="M1135.88,288.07c0-.6,0-1.2.07-1.8l13.63-2.67c-.2,1.09-.4,2.17-.59,3.25-1-1.05-2.14-.56-3.31-.36C1142.42,287.06,1139.15,287.55,1135.88,288.07Z" transform="translate(-805.29 -231.41)"/><path class="cls-26" d="M1121.71,515.09a11,11,0,0,1,1.22,2.54q2.63,13.68,5.11,27.41c.42,2.31.52,4.67.76,7-3,.22-6,.51-9,.64-6.13.27-12.26.45-18.39.67l-.65,0-18,1.26H1075l-5.84-3.26c.22-3.19.6-6.38.62-9.58.08-10.63,0-21.27,0-31.91,3.06.44,6.13.8,9.17,1.32,4.73.8,9.44,1.7,14.16,2.56a5.88,5.88,0,0,0,1.72.63C1103.81,514.67,1112.76,514.87,1121.71,515.09Z" transform="translate(-805.29 -231.41)"/><path class="cls-12" d="M1110,388a30,30,0,0,1,1.33-4.47c.92-2,2.13-3.89,3.22-5.82h8.06c2-3.42,3.75-6.57,5.44-9.55-.81-1.57-1.45-2.82-2.08-4.06,2.7.52,5.41,1.07,8.12,1.56,2.16.39,4.32.72,6.51,1.08,1-2.24,1.77-4.09,2.53-5.95.42-1,.82-2,2.13-2.11,3,.05,6,0,9,.18a2.86,2.86,0,0,0,3-1.84,47.61,47.61,0,0,1,3-5.29,3.38,3.38,0,0,0,.21-3.87l5.27,0a24.42,24.42,0,0,1-.66,3.76c-1.89,5.67-3.88,11.31-5.83,17-1.07,0-2.15,0-3.22-.11q-6.55-.57-13.1-1.18c-1.68-.15-2.64.37-3.36,2.17-2.68,6.68-5.64,13.24-8.47,19.85-.39.93-.61,1.92-1,3.27,1.62,0,2.68,0,3.74,0l17.7-.64c-.52,2.29-.86,4.64-1.57,6.87-4,12.47-8.13,24.9-12.18,37.36-3.22,9.94-6.37,19.89-9.59,29.82-.55,1.72-1.31,3.37-2,5.05-6.46,0-12.92,0-19.37,0a18.56,18.56,0,0,1-3.34-.64c.51-2.29.86-4.63,1.57-6.86,2.43-7.67,5-15.3,7.5-23l3.29-9.59v-.29c3.77,0,7.55,0,11.33.12a2.64,2.64,0,0,0,2.6-1.52c2.44-4.31,4.92-8.6,7.39-12.92-2.55-4.43-5-8.73-7.52-13a6.06,6.06,0,0,0-1.12-1.08l-1.23-.05-1.41,0a2.3,2.3,0,0,1,.14-.42l3.52-9Z" transform="translate(-805.29 -231.41)"/><path class="cls-28" d="M1082.79,554.66l18-1.26.65,0c6.13-.22,12.26-.4,18.39-.67,3-.13,6-.42,9-.64,0,1.31,0,2.62,0,3.92-.2.43-.41.87-.62,1.3l0,0a6.32,6.32,0,0,0-1.3,1.34Q1118.38,575,1110,591.52c-.63,1.11-1.27,2.22-1.89,3.34q-2.88,5.19-5.75,10.38a14.66,14.66,0,0,1-2.65-1.06q-7.41-4.74-14.75-9.62a8.4,8.4,0,0,1-1.49-1.64,47.07,47.07,0,0,0,.62-5.39c.07-8.48,0-17,0-25.45C1084.08,559.53,1084.36,556.94,1082.79,554.66Zm18.4,24.64a26.12,26.12,0,0,1,3.14,0,3.31,3.31,0,0,0,3.8-2.24c.95-2,2.9-4,2.89-6s-1.88-4-2.94-6a6.22,6.22,0,0,1-.32-.56c-.57-1.59-1.75-2-3.32-1.88a6.64,6.64,0,0,1-1.94,0c-4.12-.8-6.4,1-8.3,4.67-1.48,2.85-1.94,5.08.18,7.57a1,1,0,0,1,.17.28C1095.83,578.5,1098,580.33,1101.19,579.3Z" transform="translate(-805.29 -231.41)"/><path class="cls-23" d="M1110,591.52q8.44-16.47,16.93-32.94a6.32,6.32,0,0,1,1.3-1.34c-.56,4.14-1,8.3-1.7,12.42-1.11,7.11-2.33,14.19-3.5,21.29q-2.09,12.54-4.15,25.09c-1.42,8.47-2.87,16.92-4.27,25.39-1.15,7-2.21,14-3.4,21-.61,3.59-1.79,7.11-.6,10.81.12.37-.35.93-.54,1.41l-5.91-2.77c.24-4.92.44-9.85.73-14.77.18-3,.46-6,.73-9,.38-4.15.83-8.29,1.19-12.44.28-3.31.4-6.63.72-9.93.57-6,1.27-11.89,1.86-17.84q.71-7,1.23-14A7.79,7.79,0,0,0,1110,591.52Z" transform="translate(-805.29 -231.41)"/><path class="cls-28" d="M1103.51,470.34a18.56,18.56,0,0,0,3.34.64c6.45.06,12.91,0,19.37,0,.18.26.55.53.53.76-.55,5-1.17,10-1.73,15-.28,2.55-.5,5.12-.71,7.68-.46,5.45-.83,10.91-1.38,16.35a25.26,25.26,0,0,1-1.22,4.31c-9-.22-17.9-.42-26.85-.67a5.88,5.88,0,0,1-1.72-.63q1-3.88,2-7.77c.29.15.58.42.87.42,4.29.07,8.58.15,12.87.06a2.9,2.9,0,0,0,1.91-1.37c2.16-3.58,4.2-7.22,6.3-10.87-2.09-3.66-4.14-7.18-6.12-10.74a2.82,2.82,0,0,0-2.89-1.54c-2.79.09-5.59.07-8.38.09l-3.92-.25,5.08-.77c.69-3.63,1.35-7.16,2-10.69Z" transform="translate(-805.29 -231.41)"/><path class="cls-16" d="M1151.53,391.91l-17.7.64c-1.06,0-2.12,0-3.74,0,.43-1.35.65-2.34,1-3.27,2.83-6.61,5.79-13.17,8.47-19.85.72-1.8,1.68-2.32,3.36-2.17q6.55.6,13.1,1.18c1.07.09,2.15.08,3.22.11-.58,2.27-1.07,4.57-1.77,6.8-1.41,4.5-2.92,9-4.45,13.42A30.29,30.29,0,0,1,1151.53,391.91Z" transform="translate(-805.29 -231.41)"/><path class="cls-10" d="M1177.41,317.36c2.37-6.81,4.73-13.62,7.25-20.88L1199.48,311c.94,4.68,2.27,9.3,2,14.15-1.16.13-2.33.26-3.48.41l-12,1.52Z" transform="translate(-805.29 -231.41)"/><path class="cls-24" d="M1104.11,671.85l5.91,2.77c.43,3.18.89,6.36,1.28,9.54.42,3.51.82,7,1.17,10.54.12,1.29.09,2.59.13,3.88-2.08.21-4.24-.43-6.47.58,0,1.4-.07,2.79,0,4.16.17,3.18.41,6.36.63,9.53H1096.4c-.44-2.92-.81-5.86-1.33-8.77a42.32,42.32,0,0,0-1.2-4.19l1.26-7.79a24.81,24.81,0,0,0,10.16.31,21.34,21.34,0,0,0,.14-2.39c-.18-2.94-.4-5.88-.61-8.82s-.46-6.16-.69-9.24Z" transform="translate(-805.29 -231.41)"/><path class="cls-12" d="M1134.63,342c2.69-5.13,5.36-10.28,8.1-15.39.33-.61,1.09-1,1.65-1.49,2.91,1.08,5.82,2.2,8.75,3.24,3.1,1.11,3.28,1,4.54-1.92.76-1.78,1.53-3.56,2.29-5.33l14.22.7c0,3.09-1.27,5.8-2.57,8.5-4.36-.21-8.71-.43-13.07-.63-1.07-.05-2.22-.14-2.71,1.15-1.25,3.27-2.47,6.55-3.71,9.83l-1.24.17c-3.73-.89-6.49.11-7.78,4a2.85,2.85,0,0,1-.35.53Z" transform="translate(-805.29 -231.41)"/><path class="cls-16" d="M1185.94,327.05l12-1.52c1.15-.15,2.32-.28,3.48-.41.18.11.47.18.53.34,1.57,4,3.12,8,4.68,11.94l-8.46,7.23-12.28-3.31q0-6.84-.1-13.67A3.19,3.19,0,0,1,1185.94,327.05Zm7.17,12.21.65-.32c-.64-2.38-1.28-4.75-2-7.39l-3.44,1.64Zm6.13-8.72V338l.48.1c.92-2.24,1.84-4.47,2.87-6.93Z" transform="translate(-805.29 -231.41)"/><path class="cls-16" d="M1152.12,340.64c1.24-3.28,2.46-6.56,3.71-9.83.49-1.29,1.64-1.2,2.71-1.15,4.36.2,8.71.42,13.07.63a17.58,17.58,0,0,1-.45,2.83q-2,6.28-4.13,12.53a13.25,13.25,0,0,1-1.26,2.18l-5.27,0a5.7,5.7,0,0,0-.58-.06,28.57,28.57,0,0,1-1.76-3.38C1157.08,341.6,1155.18,340.24,1152.12,340.64Z" transform="translate(-805.29 -231.41)"/><path class="cls-7" d="M1106.77,712.85c-.22-3.17-.46-6.35-.63-9.53-.08-1.37,0-2.76,0-4.16,2.23-1,4.39-.37,6.47-.58.4,3.72.86,7.44,1.19,11.16s.5,7.27.75,10.91l-7.11-.65Z" transform="translate(-805.29 -231.41)"/><path class="cls-23" d="M1185.94,327.05a3.19,3.19,0,0,0-.12.6L1182,329.1c-1.76-2.22-3.55-4.43-5.28-6.67-.72-.93-1.41-1.65-2.57-.64l-14.22-.7-4.44-10.93.5-.36a49.71,49.71,0,0,1,3.8,4.8,5.38,5.38,0,0,0,5.33,2.76c4.08-.16,8.18,0,12.26,0Z" transform="translate(-805.29 -231.41)"/><path class="cls-4" d="M1182,329.1l3.79-1.45q0,6.84.1,13.67l-3.92,1.32Z" transform="translate(-805.29 -231.41)"/><path class="cls-28" d="M1182,342.64l3.92-1.32,12.28,3.31c.21,1.27.43,2.55.65,3.82a22.56,22.56,0,0,1-3.1-.54q-5.74-1.83-11.45-3.83A11.91,11.91,0,0,1,1182,342.64Z" transform="translate(-805.29 -231.41)"/><path class="cls-4" d="M1198.85,348.45c-.22-1.27-.44-2.55-.65-3.82l8.46-7.23c1.75,2.82,1.77,3.18-.36,5.17-2,1.82-4,3.57-6,5.3A4.89,4.89,0,0,1,1198.85,348.45Z" transform="translate(-805.29 -231.41)"/><path class="cls-23" d="M1128.16,557.27c.21-.43.42-.87.62-1.3C1128.57,556.41,1128.37,556.84,1128.16,557.27Z" transform="translate(-805.29 -231.41)"/><path class="cls-20" d="M1065.93,611.69c-4.55.76-9.09,1.54-13.63,2.25-5,.79-10,1.51-14.92,2.26q0-19.1,0-38.2l9.73,3.22q12.2,4.14,24.39,8.3c3.13,1.08,6.22,2.25,9.33,3.38a32.53,32.53,0,0,1-2.49,4.05C1074.27,601.91,1070.08,606.79,1065.93,611.69Z" transform="translate(-805.29 -231.41)"/><path class="cls-29" d="M1037.39,578q0,19.1,0,38.2l-13.63,2.44a18.47,18.47,0,0,1,0-2.58c.62-3.91-1.17-6.34-4.3-8.55-6.65-4.71-13-9.85-19.57-14.66-1.69-1.25-2.93-2.19-2.19-4.61.34-1.1-.33-2.5-.54-3.76a7.36,7.36,0,0,1,1.36-.65c1.92-.46,3.85-.87,5.78-1.3l29.83-5.19Z" transform="translate(-805.29 -231.41)"/><path class="cls-26" d="M1065.93,611.69c4.15-4.9,8.34-9.78,12.42-14.74a32.53,32.53,0,0,0,2.49-4.05h1.28c.22,2.65.49,5.3.64,8,.26,5,.45,10,.68,15,0,.21,0,.43,0,.64l1.23,17.21-5,.26c-1,1.76-2.16,3.48-3.06,5.31a3.07,3.07,0,0,0-.12,2.39c.89,1.83,1.74,3.91,3.23,5.14,1,.83,3.07.37,4.66.49l1.6.18.59,18h0l-12.31,7.11a40.53,40.53,0,0,1-1.2-4.89c-.77-6.06-1.35-12.14-2.11-18.21s-1.7-12.08-2.46-18.13-1.37-11.93-2.09-17.89A10.44,10.44,0,0,0,1065.93,611.69Z" transform="translate(-805.29 -231.41)"/><path class="cls-27" d="M997.19,584.48c.21,1.26.88,2.66.54,3.76-.74,2.42.5,3.36,2.19,4.61,6.58,4.81,12.92,9.95,19.57,14.66,3.13,2.21,4.92,4.64,4.3,8.55a18.47,18.47,0,0,0,0,2.58c-5,1.52-9.81.94-14.71-.68s-9.66-2.73-14.51-4a17,17,0,0,0-1.9-.27c-1.87-.82-4.25-.15-5.82-1.92,2.36-7.07,1-14.36,1.26-21.56a30,30,0,0,0-.61-5c2,0,4,0,6-.16C994.69,584.91,995.94,584.65,997.19,584.48Z" transform="translate(-805.29 -231.41)"/><path class="cls-5" d="M947.25,597.45c3.91,1.73,7.83,3.45,11.73,5.21,2.34,1.06,4.63,2.25,7,3.27,2.64,1.13,3,1.53,2.64,4.34-.44,3.28-1.06,6.53-1.54,9.81-.58,3.91-1.11,7.82-1.65,11.73a10.47,10.47,0,0,0-.6,1.82q-1,6.63-1.91,13.28c-.46,3.38-.89,6.76-1.34,10.13l-.68,0-8.39-5.76-.13-.11-.54-8.76a3.1,3.1,0,0,0,3.24-2.06c.47-1.25,1.32-2.63,1.12-3.8-.54-3.09-2.36-4.18-5.67-4l-2.59-.22,2.67-1.23c-.25-1.37-.59-2.62-.7-3.88-.29-3.32-.46-6.65-.72-10-.23-3-.5-6-.79-9C948,604.7,947.63,601.07,947.25,597.45ZM952,617.1c.58,1.09,1.1,2.14,1.7,3.14a5.16,5.16,0,0,0,8.82-.07,5,5,0,0,0,0-6.11c-1.19-1.91-2.61-2.1-4.52-2.2-2.24-.13-3.71.54-4.54,2.64A24.08,24.08,0,0,1,952,617.1Z" transform="translate(-805.29 -231.41)"/><path class="cls-23" d="M961.57,657c.45-3.37.88-6.75,1.34-10.13q.93-6.64,1.91-13.28a10.47,10.47,0,0,1,.6-1.82c1.28-1.69,2.65-3.32,3.82-5.08,3.54-5.34,7-10.73,10.47-16l7.1,1c1.57,1.77,4,1.1,5.82,1.92-.54.91-1,1.86-1.62,2.72q-11.4,16.3-22.83,32.58-2.5,3.57-5.13,7A6,6,0,0,1,961.57,657Z" transform="translate(-805.29 -231.41)"/><path class="cls-13" d="M1149.58,283.6,1136,286.27l0-.28a2.59,2.59,0,0,1-1.28-2.66c.06-2.44.1-4.89,0-7.32a13.48,13.48,0,0,0-.8-2.9q.09-.27.21-.54a3.71,3.71,0,0,0,1.23-.31,4.61,4.61,0,0,1,5.12,0,13.4,13.4,0,0,0,2.09.78l9,4.08C1150.87,279.31,1150.22,281.46,1149.58,283.6Z" transform="translate(-805.29 -231.41)"/><path class="cls-6" d="M1160.49,297.21l-6.26-3.56c1.35-1.85,3.41-2.28,5.12-3.57l7.06,3.71Z" transform="translate(-805.29 -231.41)"/><path class="cls-27" d="M951.83,642.45l.54,8.76-11.65,9.11c-.24-1.11-.39-2.25-.73-3.32-1.76-5.56-3.52-11.12-5.41-16.64-.21-.63-1.2-1-1.82-1.5,1-2,.62-3.8-.07-5.81-2.19-6.39-4.18-12.84-6.24-19.26,2-1.72,4-3.47,6.08-5.14q6.48-5.25,13-10.42a8,8,0,0,1,1.7-.78c.38,3.62.78,7.25,1.14,10.87.29,3,.56,6,.79,9,.26,3.32.43,6.65.72,10,.11,1.26.45,2.51.7,3.88l-2.67,1.23c-3.12,4.88-3.12,4.88-.4,9.26a2.61,2.61,0,0,0,.51.46h3.13Zm-10-22.15H936.9c-1.56,2-2.56,3.71-1,6.2,1.08,1.79,2.41,1.77,4,1.79,3,0,2.92-2.62,4.11-4.24-.47-.88-.85-1.64-1.27-2.37C942.47,621.22,942.14,620.79,941.81,620.3Z" transform="translate(-805.29 -231.41)"/><path class="cls-19" d="M932.76,638.86c.62.49,1.61.87,1.82,1.5,1.89,5.52,3.65,11.08,5.41,16.64.34,1.07.49,2.21.73,3.32,0,1.95,0,3.9,0,5.85a19.92,19.92,0,0,1-3.78.59c-3.43-.1-6.85-.39-10.27-.6,1-6.85,1.95-13.73,3.24-20.53C930.39,643.28,931.79,641.11,932.76,638.86Z" transform="translate(-805.29 -231.41)"/><path class="cls-27" d="M926.71,666.16c3.42.21,6.84.5,10.27.6a19.92,19.92,0,0,0,3.78-.59l.63,5.15a8.5,8.5,0,0,0-1.9,1.4c-1,1.21-1.74,2.56-2.6,3.86l-1.28.65-11,3.21Q925.64,673.3,926.71,666.16Z" transform="translate(-805.29 -231.41)"/><path class="cls-25" d="M924.57,680.44l11-3.21a7.19,7.19,0,0,1-.82,2.35c-2.55,3.1-2.92,6.8-3.12,10.57-3,1.2-5.94-.09-8.91,0C923.36,686.91,924,683.68,924.57,680.44Z" transform="translate(-805.29 -231.41)"/><path class="cls-25" d="M936.89,676.58c.86-1.3,1.64-2.65,2.6-3.86a8.5,8.5,0,0,1,1.9-1.4q.66,6.84,1.34,13.67c-1.09,1.27-2.17,2.55-3.25,3.82Q938.19,682.69,936.89,676.58Z" transform="translate(-805.29 -231.41)"/><path class="cls-14" d="M1086.66,665.52l-.59-18-.1-.29a2.12,2.12,0,0,0,2.55-.77c3.49-4.31,3.49-5.69.63-10.53-1.15-2-2.47-2.5-4.49-1.84,0-.11,0-.22,0-.34l-1.23-17.21c0-.21,0-.43,0-.64-.23-5-.42-10-.68-15-.15-2.66-.42-5.31-.64-8h1.3a8.4,8.4,0,0,0,1.49,1.64q7.33,4.88,14.75,9.62a14.66,14.66,0,0,0,2.65,1.06c-.23,2.78-.53,5.56-.68,8.34-.29,5.26-.48,10.52-.75,15.77-.19,3.65-.43,7.29-.67,10.93q-.62,9.63-1.26,19.26c-.25,3.53-.57,7.05-.86,10.58-2.3-1.1-4.56-2.28-6.91-3.26A42.78,42.78,0,0,0,1086.66,665.52Zm.75-43.33c2.62,5.08,3.69,5.74,7.74,4.94,1.06-.21,3.54-3.74,3.54-5s-2.5-4.76-3.61-5C1090.91,616.35,1090,617,1087.41,622.19Z" transform="translate(-805.29 -231.41)"/><path class="cls-19" d="M1098.09,670.12c.29-3.53.61-7,.86-10.58q.66-9.63,1.26-19.26c.24-3.64.48-7.28.67-10.93.27-5.25.46-10.51.75-15.77.15-2.78.45-5.56.68-8.34q2.87-5.19,5.75-10.38c.62-1.12,1.26-2.23,1.89-3.34a7.79,7.79,0,0,1,.62,2.36q-.52,7-1.23,14c-.59,6-1.29,11.89-1.86,17.84-.32,3.3-.44,6.62-.72,9.93-.36,4.15-.81,8.29-1.19,12.44-.27,3-.55,6-.73,9-.29,4.92-.49,9.85-.73,14.77l0,.12c-.71.41-1.43.8-2.13,1.22-1.5.91-3,1.84-4.48,2.77Z" transform="translate(-805.29 -231.41)"/><path class="cls-5" d="M1097.52,676c1.49-.93,3-1.86,4.48-2.77.7-.42,1.42-.81,2.13-1.22.23,3.08.47,6.16.69,9.24s.43,5.88.61,8.82a21.34,21.34,0,0,1-.14,2.39,24.81,24.81,0,0,1-10.16-.31Q1096.32,684,1097.52,676Z" transform="translate(-805.29 -231.41)"/><path class="cls-13" d="M1205.32,267.43,1193,272.55l-6.21-3.82c2.63-3.74,5.22-7.5,7.93-11.18.45-.61,1.39-.86,2.1-1.27l2.82-.31.26,0,.2-.2,6.48-.74.67,0c1.86.13,1.12,1.68,1.45,2.64-.67,2.58-1.28,5.18-2,7.73A8.3,8.3,0,0,1,1205.32,267.43Z" transform="translate(-805.29 -231.41)"/><path class="cls-24" d="M936.89,676.58q1.29,6.12,2.59,12.23c-.61,4.56-1.23,9.12-1.83,13.68-.09.64-.09,1.29-.14,1.93a14.5,14.5,0,0,0-7.76,0l1.92-14.28c.2-3.77.57-7.47,3.12-10.57a7.19,7.19,0,0,0,.82-2.35Z" transform="translate(-805.29 -231.41)"/><path class="cls-7" d="M1208.74,257.66c-.33-1,.41-2.51-1.45-2.64l2.19-.59.5.6Z" transform="translate(-805.29 -231.41)"/><path class="cls-5" d="M1200.14,255.81l-.2.2-.26,0A.72.72,0,0,1,1200.14,255.81Z" transform="translate(-805.29 -231.41)"/><path class="cls-17" d="M997.19,584.48c-1.25.17-2.5.43-3.75.5-2,.12-4,.11-6,.16l-1.3,0-1.29-.63-4-.7c1.55-2.69,3.09-5.38,4.65-8.1-.49-1-.88-1.84-1.37-2.66-1.09-1.84-1.84-4.24-3.46-5.3s-3.91-.47-5.93-.61a1.73,1.73,0,0,1-.31-.07c-1.89-2.46-3.87-4.85-5.62-7.4-1.42-2.06-4-3.4-4.08-6.3,2.86-2.18,5.69-4.45,9.3-5.33h.46l3.4,6c4.06,0,8,0,12,0,1.31,0,1.9-.81,2.46-1.76l3.59-6.13c2.59.34,3.85,2.63,5.73,4,2.06,1.5,3.87,3.33,5.79,5-1.09,1.94-2,4-3.31,5.79s-1.05,3.25,0,4.94c.87,1.32,1.52,2.78,2.27,4.18a3.51,3.51,0,0,0-2.24,3.8c.09,2.87,0,5.75,0,8.62-1.93.43-3.86.84-5.78,1.3A7.36,7.36,0,0,0,997.19,584.48Z" transform="translate(-805.29 -231.41)"/><path class="cls-27" d="M964.77,553.35c.1,2.9,2.66,4.24,4.08,6.3,1.75,2.55,3.73,4.94,5.62,7.4-2.69-.38-4.18,1-5.17,3.34a21.72,21.72,0,0,1-1.93,3.37,3,3,0,0,0,0,3.61c1,1.66,1.87,3.39,2.8,5.09-2.23-.19-4.47-.3-6.68-.59-4.23-.57-8.42-1.41-12.66-1.81a3.46,3.46,0,0,1-3.19-2.61c-1.18-3-2.31-6-3.51-9-.39-1-.94-1.87-1.42-2.81a17.26,17.26,0,0,1,2.21-1.72c5.61-3.07,11.26-6.07,16.88-9.14a10.43,10.43,0,0,0,1.66-1.41Z" transform="translate(-805.29 -231.41)"/><path class="cls-13" d="M970.18,582.46c-.93-1.7-1.81-3.43-2.8-5.09a3,3,0,0,1,0-3.61,21.72,21.72,0,0,0,1.93-3.37c1-2.33,2.48-3.72,5.17-3.34a1.73,1.73,0,0,0,.31.07c2,.14,4.45-.36,5.93.61s2.37,3.46,3.46,5.3c.49.82.88,1.7,1.37,2.66-1.56,2.72-3.1,5.41-4.65,8.1-2.58,0-5.17,0-7.75.06A2.85,2.85,0,0,1,970.18,582.46Z" transform="translate(-805.29 -231.41)"/><path class="cls-27" d="M984.87,584.49l1.29.63Z" transform="translate(-805.29 -231.41)"/><path class="cls-11" d="M1082.12,454.06a3.48,3.48,0,0,1,3.24,2.19c1.34,2.55,2.83,5,4.4,7.78l-1.92,3.1a22,22,0,0,1-12.24-3.23c-2-1.22-4.16-2.16-6.25-3.23,0-.2,0-.4,0-.6,1.29-1.92,2.18-4.59,4-5.56s4.56-.28,6.89-.34C1080.85,454.16,1081.48,454.1,1082.12,454.06Z" transform="translate(-805.29 -231.41)"/><path class="cls-20" d="M1095.11,506q-1,3.89-2,7.77c-4.72-.86-9.43-1.76-14.16-2.56-3-.52-6.11-.88-9.17-1.32l-5.2-1.29c0-.21,0-.41,0-.62.74-2.56,1.4-5.15,2.23-7.68,2.81-8.54,5.67-17.06,8.68-26.07,1.44,0,3.13.06,4.8,0,1.26-.06,2.5-.3,3.75-.47,1.29-2,2.58-4,3.86-6l3.27.64c.84.1,1.69.17,2.53.31l9.11,1.64c-.67,3.53-1.33,7.06-2,10.69l-5.08.77c-2.28,3.76-4.59,7.49-6.78,11.29a2.49,2.49,0,0,0-.07,2.1c2,3.41,4.12,6.75,6.2,10.1Z" transform="translate(-805.29 -231.41)"/><path class="cls-6" d="M1087.94,467.77c-1.28,2-2.57,4-3.86,6-3.1,0-6.21-.15-9.31-.07a3.13,3.13,0,0,1-3.27-1.95c-.91-1.81-2-3.53-3-5.3-1.59-2.8-1.56-3,.86-5.77,2.09,1.07,4.26,2,6.25,3.23a22,22,0,0,0,12.24,3.23A3.41,3.41,0,0,0,1087.94,467.77Z" transform="translate(-805.29 -231.41)"/><path class="cls-26" d="M1102.85,470.36l-9.11-1.64c-.84-.14-1.69-.21-2.53-.31V434.66a31,31,0,0,1,3.75.59c5.88,1.72,11.75,3.51,17.62,5.28-2.51,7.65-5.07,15.28-7.5,23-.71,2.23-1.06,4.57-1.57,6.86Z" transform="translate(-805.29 -231.41)"/><path class="cls-6" d="M1115.87,430.94l-4-.21c-2.55-4.41-5.16-8.82-7.64-13.31a3.25,3.25,0,0,1,.08-2.35A23.09,23.09,0,0,1,1106,412c1.64-2.76,3.39-5.46,4.88-8.29a3.39,3.39,0,0,1,3.61-1.95c3.86.1,7.72,0,11.59,0a2.3,2.3,0,0,0-.14.42,46.88,46.88,0,0,0-2.38,4.89c-2.3,6.61-4.48,13.25-6.68,19.88-.4,1.22-.66,2.48-1,3.72Z" transform="translate(-805.29 -231.41)"/><path class="cls-26" d="M1126,401.74c-3.87,0-7.73.09-11.59,0a3.39,3.39,0,0,0-3.61,1.95c-1.49,2.83-3.24,5.53-4.88,8.29l-9-2.32c.72-1.39,1.34-2.6,2-3.79q4.63-8.49,9.26-17a7.76,7.76,0,0,0,.47-1.53l1.3.64,19.55,4.74Z" transform="translate(-805.29 -231.41)"/><path class="cls-22" d="M1064.61,508.62l5.2,1.29c0,10.64,0,21.28,0,31.91,0,3.2-.4,6.39-.62,9.58-9.28-5.52-18.54-11.06-27.85-16.52a14.44,14.44,0,0,0-3.27-1c-.35-.6-.57-1.41-1.09-1.76-1.58-1-3.27-1.9-4.91-2.83.77-1.42,1.58-2.82,2.3-4.27.89-1.78,1.7-3.61,2.55-5.41a1.37,1.37,0,0,0,.15-.55c4.92-1.8,9.85-3.54,14.74-5.39C1056.08,512.05,1060.34,510.31,1064.61,508.62Z" transform="translate(-805.29 -231.41)"/><path class="cls-13" d="M1037,519.07a1.37,1.37,0,0,1-.15.55L1025,524.5c1,.63,1.62,1,2.18,1.41,1.48,1.11,3.33,1.75,4.35,3.43-.8,1.52-1.51,3.08-2.43,4.52a2.52,2.52,0,0,1-1.73,1.12c-5.59.08-11.18,0-16.81,0l-2.32-4.39c0-.21,0-.42,0-.64a24.71,24.71,0,0,0,3.45-.65c3.16-1,6.29-2.16,9.41-3.31a18.47,18.47,0,0,0,2.37-1.27,63.11,63.11,0,0,1-4.19-5.68c-2.73-4.74-5.27-9.59-7.89-14.4.07-.17.14-.35.22-.52h16.79Z" transform="translate(-805.29 -231.41)"/><path class="cls-6" d="M960.05,537.45a10.33,10.33,0,0,0,1.1,2.32c1.74,2.11,1.65,4.22.29,6.42a12.51,12.51,0,0,0-.8,1c-3.15,5-1.33,4.15-7.52,4.16-5.19,0-3.83.78-7-4-2.19-3.3-2.28-6,.24-9a6.51,6.51,0,0,0,.95-1.69,3,3,0,0,1,3.32-2,20.22,20.22,0,0,0,3.89,0C957,534.44,959,535,960.05,537.45Z" transform="translate(-805.29 -231.41)"/><path class="cls-15" d="M1008.26,530.64l2.32,4.39c5.63,0,11.22,0,16.81,0a2.52,2.52,0,0,0,1.73-1.12c.92-1.44,1.63-3,2.43-4.52a2.63,2.63,0,0,1,.49,0c1.64.93,3.33,1.79,4.91,2.83.52.35.74,1.16,1.09,1.76v36.6a18.91,18.91,0,0,0,0,2.26c.23,1.89,1.12,2.26,2.88,1.36s3.68-1.74,5.51-2.61c.44.92,1.23,1.83,1.23,2.74,0,2.33-.36,4.65-.57,7l-9.73-3.22-3.23-.66c-.19-.48-.23-1.15-.58-1.42-2.71-2.16-5.47-4.25-8.22-6.35a1.3,1.3,0,0,1-.11-.58c.76-1.16,1.49-2.34,2.3-3.46a3.32,3.32,0,0,0,.08-4.15c-1.44-2.26-2.76-4.61-4-7a3.25,3.25,0,0,0-3.38-1.85c-2.79.1-5.59.15-8.38,0-2.07-.13-3.26.63-3.76,2.6a5,5,0,0,1-.56.07c-1.92-1.69-3.73-3.52-5.79-5-1.88-1.37-3.14-3.66-5.73-4,.06-.37.12-.74.19-1.12,1.42-1.13,1.54-2.32.46-3.84a33.7,33.7,0,0,1-2.13-3.93c.55-.54,1-1.3,1.67-1.59C1000.2,534,1004.24,532.32,1008.26,530.64Z" transform="translate(-805.29 -231.41)"/><path class="cls-11" d="M1011.43,504.69c2.62,4.81,5.16,9.66,7.89,14.4a63.11,63.11,0,0,0,4.19,5.68,18.47,18.47,0,0,1-2.37,1.27c-3.12,1.15-6.25,2.28-9.41,3.31a24.71,24.71,0,0,1-3.45.65c-1.83-3-3.69-6-5.44-9.12a2.52,2.52,0,0,1-.19-2.08c2.67-4.66,5.44-9.26,8.21-13.87C1010.94,504.79,1011.24,504.77,1011.43,504.69Z" transform="translate(-805.29 -231.41)"/><path class="cls-13" d="M974.53,548h-.46a32.25,32.25,0,0,0-1.55-3.44,2.59,2.59,0,0,1-.1-3q3-4.87,6-9.77l7.77.32c-.13,2.73,1,5.11,2,7.56a18.4,18.4,0,0,0-3.26,1.11c-2.47,1.41-4.88,2.93-7.24,4.51A35.52,35.52,0,0,0,974.53,548Z" transform="translate(-805.29 -231.41)"/><path class="cls-11" d="M988.13,539.72c-1-2.45-2.12-4.83-2-7.56,3.48-.86,5.94.19,7.17,3.73.19.54.8.94,1.22,1.4a33.7,33.7,0,0,0,2.13,3.93c1.08,1.52,1,2.71-.47,3.84-1.51-.92-3.06-1.79-4.54-2.76C990.44,541.5,989.3,540.58,988.13,539.72Z" transform="translate(-805.29 -231.41)"/><path class="cls-4" d="M1134.63,342l8.12,3.35a25.35,25.35,0,0,0-1.71,3,3.26,3.26,0,0,0-.2,2.33c1,1.93,2.31,3.72,3.5,5.56l.93,2.43c-1.31.1-1.71,1.09-2.13,2.11-.76,1.86-1.58,3.71-2.53,5.95-2.19-.36-4.35-.69-6.51-1.08-2.71-.49-5.42-1-8.12-1.56l-.65-.73-1.69-3.9a12.61,12.61,0,0,0,2.41-2.37c2.62-4.58,5.11-9.24,7.62-13.88A6,6,0,0,0,1134,342Z" transform="translate(-805.29 -231.41)"/><path class="cls-6" d="M1123.64,359.48l1.69,3.9a22.21,22.21,0,0,1-4.29-1c-2.24-1-4.34-2.36-6.49-3.56.06-.17.14-.34.21-.51,2,0,4.06.08,6.09,0A3.14,3.14,0,0,1,1123.64,359.48Z" transform="translate(-805.29 -231.41)"/><path class="cls-11" d="M1114.55,358.79c2.15,1.2,4.25,2.54,6.49,3.56a22.21,22.21,0,0,0,4.29,1l.65.73c.63,1.24,1.27,2.49,2.08,4.06-1.69,3-3.49,6.13-5.44,9.55h-8.06c-2.29.18-3.73-.76-4.69-2.94s-2.41-4.29-3.77-6.65c1.63-2.83,3.25-5.71,4.93-8.55C1111.89,358.15,1113.32,358.81,1114.55,358.79Z" transform="translate(-805.29 -231.41)"/><path class="cls-6" d="M1133.81,273.11a13.48,13.48,0,0,1,.8,2.9c.12,2.43.08,4.88,0,7.32a2.59,2.59,0,0,0,1.28,2.66,3.73,3.73,0,0,1-3.82-.94c-2.36-2.18-4.84-4.23-7.25-6.37a6.06,6.06,0,0,1-.77-1.35A71.32,71.32,0,0,1,1133.81,273.11Z" transform="translate(-805.29 -231.41)"/><path class="cls-18" d="M1047.12,581.22c.21-2.33.57-4.65.57-7,0-.91-.79-1.82-1.23-2.74,1.34-.88,2.62-1.86,4-2.62,6.8-3.67,13.68-7.2,20.42-11,1.48-.82,3.53-1.18,4.11-3.25h7.79c1.57,2.28,1.29,4.87,1.29,7.42,0,8.48,0,17,0,25.45a47.07,47.07,0,0,1-.62,5.39h-2.58c-3.11-1.13-6.2-2.3-9.33-3.38Q1059.33,585.34,1047.12,581.22Z" transform="translate(-805.29 -231.41)"/><path class="cls-28" d="M1075,554.66c-.58,2.07-2.63,2.43-4.11,3.25-6.74,3.77-13.62,7.3-20.42,11-1.39.76-2.67,1.74-4,2.62-1.83.87-3.7,1.7-5.51,2.61s-2.65.53-2.88-1.36a18.91,18.91,0,0,1,0-2.26v-36.6a14.44,14.44,0,0,1,3.27,1c9.31,5.46,18.57,11,27.85,16.52Z" transform="translate(-805.29 -231.41)"/><path class="cls-11" d="M1115.86,430.65c.32-1.24.58-2.5,1-3.72,2.2-6.63,4.38-13.27,6.68-19.88a46.88,46.88,0,0,1,2.38-4.89l1.41,0,1.23.05a6.06,6.06,0,0,1,1.12,1.08c2.5,4.29,5,8.59,7.52,13-2.47,4.32-5,8.61-7.39,12.92a2.64,2.64,0,0,1-2.6,1.52C1123.41,430.68,1119.63,430.68,1115.86,430.65Z" transform="translate(-805.29 -231.41)"/><path class="cls-13" d="M1145.27,358.69l-.93-2.43a25.11,25.11,0,0,0,1.29-2.16c1.12-2.3,2.19-4.63,3.28-6.94l11,.65a5.7,5.7,0,0,1,.58.06,3.38,3.38,0,0,1-.21,3.87,47.61,47.61,0,0,0-3,5.29,2.86,2.86,0,0,1-3,1.84C1151.27,358.73,1148.27,358.74,1145.27,358.69Z" transform="translate(-805.29 -231.41)"/><path class="cls-6" d="M1128.54,402.23l-1.23-.05Z" transform="translate(-805.29 -231.41)"/><path class="cls-13" d="M1101.19,579.3c-3.22,1-5.36-.8-6.64-4.12a1,1,0,0,0-.17-.28c-2.12-2.49-1.66-4.72-.18-7.57,1.9-3.66,4.18-5.47,8.3-4.67a6.64,6.64,0,0,0,1.94,0c1.57-.16,2.75.29,3.32,1.88a6.22,6.22,0,0,0,.32.56c1.06,2,2.94,4,2.94,6s-1.94,3.95-2.89,6a3.31,3.31,0,0,1-3.8,2.24A26.12,26.12,0,0,0,1101.19,579.3Z" transform="translate(-805.29 -231.41)"/><path class="cls-13" d="M1095.11,506v-.7a19.52,19.52,0,0,1,.23-2.88c1.22-5.53,2.53-11.05,3.76-16.58.28-1.24.39-2.52.58-3.79,2.79,0,5.59,0,8.38-.09a2.82,2.82,0,0,1,2.89,1.54c2,3.56,4,7.08,6.12,10.74-2.1,3.65-4.14,7.29-6.3,10.87a2.9,2.9,0,0,1-1.91,1.37c-4.29.09-8.58,0-12.87-.06C1095.69,506.44,1095.4,506.17,1095.11,506Z" transform="translate(-805.29 -231.41)"/><path class="cls-6" d="M1099.67,482.07c-.19,1.27-.3,2.55-.58,3.79-1.23,5.53-2.54,11.05-3.76,16.58a19.52,19.52,0,0,0-.23,2.88c-2.08-3.36-4.2-6.7-6.2-10.11a2.49,2.49,0,0,1,.07-2.1c2.19-3.8,4.5-7.53,6.78-11.29Z" transform="translate(-805.29 -231.41)"/><path class="cls-6" d="M1148.91,347.16c-1.09,2.31-2.16,4.64-3.28,6.94a25.11,25.11,0,0,1-1.29,2.16c-1.19-1.84-2.47-3.63-3.5-5.56a3.26,3.26,0,0,1,.2-2.33,25.35,25.35,0,0,1,1.71-3,2.85,2.85,0,0,0,.35-.53c1.29-3.88,4.05-4.88,7.78-4-.31,1-.63,2-1,3Z" transform="translate(-805.29 -231.41)"/><path class="cls-11" d="M1148.91,347.16l1-3.33c.32-1,.64-2,1-3l1.24-.17c3.06-.4,5,1,6,3.79a28.57,28.57,0,0,0,1.76,3.38Z" transform="translate(-805.29 -231.41)"/><path class="cls-6" d="M1193.11,339.26l-4.77-6.07,3.44-1.64c.7,2.64,1.34,5,2,7.39Z" transform="translate(-805.29 -231.41)"/><path class="cls-6" d="M1199.24,330.54l3.35.67c-1,2.46-1.95,4.69-2.87,6.93l-.48-.1Z" transform="translate(-805.29 -231.41)"/><path class="cls-20" d="M1025.36,569.57c2.75,2.1,5.51,4.19,8.22,6.35.35.27.39.94.58,1.42l-29.83,5.19c0-2.87.06-5.75,0-8.62a3.51,3.51,0,0,1,2.24-3.8l.41.64.46.75,1.86,3a2.86,2.86,0,0,0,.62.13l7.36,0C1022.85,574.62,1022.85,574.62,1025.36,569.57Z" transform="translate(-805.29 -231.41)"/><path class="cls-13" d="M1086.07,647.53l-1.6-.18c-1.59-.12-3.66.34-4.66-.49-1.49-1.23-2.34-3.31-3.23-5.14a3.07,3.07,0,0,1,.12-2.39c.9-1.83,2-3.55,3.06-5.31l5-.26c0,.12,0,.23,0,.34.24,1.68.54,3.34.7,5,.25,2.7.41,5.41.61,8.11Z" transform="translate(-805.29 -231.41)"/><path class="cls-11" d="M952,617.1a24.08,24.08,0,0,0,1.44-2.6c.83-2.1,2.3-2.77,4.54-2.64,1.91.1,3.33.29,4.52,2.2a5,5,0,0,1,0,6.11,5.16,5.16,0,0,1-8.82.07C953.05,619.24,952.53,618.19,952,617.1Z" transform="translate(-805.29 -231.41)"/><path class="cls-13" d="M951.17,642.11H948a2.61,2.61,0,0,1-.51-.46c-2.72-4.38-2.72-4.38.4-9.26l2.59.22Q950.84,637.35,951.17,642.11Z" transform="translate(-805.29 -231.41)"/><path class="cls-11" d="M951.17,642.11q-.33-4.75-.65-9.5c3.31-.2,5.13.89,5.67,4,.2,1.17-.65,2.55-1.12,3.8a3.1,3.1,0,0,1-3.24,2.06Z" transform="translate(-805.29 -231.41)"/><path class="cls-13" d="M941.81,620.3c.33.49.66.92.92,1.38.42.73.8,1.49,1.27,2.37-1.19,1.62-1.14,4.26-4.11,4.24-1.62,0-2.95,0-4-1.79-1.52-2.49-.52-4.2,1-6.2Z" transform="translate(-805.29 -231.41)"/><path class="cls-13" d="M1087.41,622.19c2.54-5.22,3.5-5.84,7.67-5.06,1.11.21,3.6,3.64,3.61,5s-2.48,4.82-3.54,5C1091.1,627.93,1090,627.27,1087.41,622.19Z" transform="translate(-805.29 -231.41)"/><path class="cls-6" d="M1086,647.24c-.2-2.7-.36-5.41-.61-8.11-.16-1.69-.46-3.35-.7-5,2-.66,3.34-.11,4.49,1.84,2.86,4.84,2.86,6.22-.63,10.53A2.12,2.12,0,0,1,1086,647.24Z" transform="translate(-805.29 -231.41)"/><path class="cls-6" d="M1025.36,569.57c-2.51,5-2.51,5-8.11,5l-7.36,0a2.86,2.86,0,0,1-.62-.13l-1.86-3-.46-.75-.41-.64c-.75-1.4-1.4-2.86-2.27-4.18-1.1-1.69-1.31-3.17,0-4.94s2.22-3.85,3.31-5.79a5,5,0,0,0,.56-.07L1025.25,569A1.3,1.3,0,0,0,1025.36,569.57Z" transform="translate(-805.29 -231.41)"/><path class="cls-6" d="M988.13,539.72c1.17.86,2.31,1.78,3.52,2.58,1.48,1,3,1.84,4.54,2.76l-.18,1.12-3.59,6.13c-.56,1-1.15,1.78-2.46,1.76-4-.05-8,0-12,0l-3.4-6a35.52,35.52,0,0,1,3.1-2.67c2.36-1.58,4.77-3.1,7.24-4.51A18.4,18.4,0,0,1,988.13,539.72Z" transform="translate(-805.29 -231.41)"/><path class="cls-6" d="M1032,529.3a2.63,2.63,0,0,0-.49,0c-1-1.68-2.87-2.32-4.35-3.43-.56-.43-1.19-.78-2.18-1.41l11.87-4.88c-.85,1.8-1.66,3.63-2.55,5.41C1033.62,526.48,1032.81,527.88,1032,529.3Z" transform="translate(-805.29 -231.41)"/><path class="cls-13" d="M1025.25,569l-17.16-13.86c.5-2,1.69-2.73,3.76-2.6,2.79.17,5.59.12,8.38,0a3.25,3.25,0,0,1,3.38,1.85c1.26,2.37,2.58,4.72,4,7a3.32,3.32,0,0,1-.08,4.15C1026.74,566.65,1026,567.83,1025.25,569Z" transform="translate(-805.29 -231.41)"/><path class="cls-17" d="M1007,570.75l.46.75Z" transform="translate(-805.29 -231.41)"/></svg>